# xmcd CD database file
#
# Track frame offsets:
#	150
#	28192
#	64293
#	77349
#	93172
#	124440
#	152647
#	164245
#	197361
#	223715
#
# Disc length: 3226 seconds
#
# Revision: 0
# Processed by: cddbd v1.5.2PL0 Copyright (c) Steve Scherf et al.
# Submitted via: CDex 1.70beta2
#
DISCID=870c980a
DTITLE=Sonja Huber Quartet - William's Garden
DYEAR=2011
DGENRE=Jazz
TTITLE0=Laonda
TTITLE1=Tuusig Sache
TTITLE2=Interlude 1
TTITLE3=Morgen
TTITLE4=William's Garden
TTITLE5=De Chlini Prinz
TTITLE6=Interlude 2
TTITLE7=La Grotta
TTITLE8=Endless
TTITLE9=On The Road To Berlin
EXTD=YEAR: 2011
EXTT0=
EXTT1=
EXTT2=
EXTT3=
EXTT4=
EXTT5=
EXTT6=
EXTT7=
EXTT8=
EXTT9=
PLAYORDER=
